<svg xmlns="http://www.w3.org/2000/svg" viewBox="0 0 200 200"><defs><style>.a{fill:#d6d6d6;}</style></defs><path class="a" d="M100.35,75.5a49.93,49.93,0,0,0-8.09-15,14.37,14.37,0,0,0-4.74-4.09,2.71,2.71,0,0,0-2.37-.11c-10.44,4.13-20.79,8.18-31.36,12.31a4.26,4.26,0,0,1-1.54.28c-2.19,0-4.38,0-6.57,0l-4,0a23.33,23.33,0,0,0-10.43,2.33c-8.78,4.38-13.62,11.46-14.38,21a50.27,50.27,0,0,0,0,5.49c0,.86.05,1.71.05,2.56l.28,9.84a24.8,24.8,0,0,0,23.68,21.22c2.45,0,4.95,0,7.36,0l4,0a5.43,5.43,0,0,1,1.87.27c11.15,4.19,21.21,8,31.52,11.89a2.75,2.75,0,0,0,2.52-.13,11.79,11.79,0,0,0,1.69-1.11,23.93,23.93,0,0,0,5.38-6.47c6.07-10,9.19-21.27,9.52-34.28A71,71,0,0,0,100.35,75.5Zm-10,3.44a2.88,2.88,0,0,1,2-.91h.11a2.74,2.74,0,0,1,2,.81,2.9,2.9,0,0,1,0,4.1,2.86,2.86,0,0,1-2,.86h0A2.93,2.93,0,0,1,89.52,81,2.8,2.8,0,0,1,90.32,78.94ZM93,93.14l0,5.65-13.59.09,0-5.66ZM81.73,90.92l1.62-1.6c.76-.76,1.46-1.45,2.16-2.13a1.41,1.41,0,0,1,.87-.39l4.67,0h1.86l0,4.1ZM93,101.09l0,5.64-13.62.08,0-5.64ZM88.5,138.36a2,2,0,0,1-1.71,1.79l-.31,0a2.87,2.87,0,0,1-1-.21l-4-1.52c-8.6-3.28-17.49-6.66-26.22-10A22,22,0,0,1,46.87,123a15.43,15.43,0,0,1-4-10.82V112a18.22,18.22,0,0,1,3.15-10,2.53,2.53,0,0,0,0-3.34c-3.61-5.51-4.27-11.28-2-17.14A14.17,14.17,0,0,1,51,74c3.22-1.67,6.64-3.08,9.59-4.28,5.71-2.3,11.53-4.6,17.16-6.83l6.87-2.71.43-.17a2.1,2.1,0,1,1,1.46,3.92l-2.93,1.16L75.19,68.4q-9.3,3.69-18.6,7.4a19.61,19.61,0,0,0-6.21,3.76c-2.37,2.2-3.51,5.15-3.46,9a14.09,14.09,0,0,0,2.67,7.85,6.61,6.61,0,0,1,0,7.64c-2.92,4.47-3.38,9.06-1.37,13.66a10.93,10.93,0,0,0,5.67,5.43c3.12,1.46,6.38,2.74,9.46,3.93q8.16,3.15,16.33,6.24l7.09,2.7A2.18,2.18,0,0,1,88.5,138.36ZM77.16,105.17h-.5c-.61,0-1.22,0-1.83.06s-1.32.06-2,.06a14.61,14.61,0,0,1-2.2-.15,5,5,0,0,1-4-5.66,5.2,5.2,0,0,1,4.86-4.64c1.15-.06,2.27-.06,3.45,0h2.11ZM51.69,107a6.58,6.58,0,0,1,6-4.09c.89-.07,1.79-.06,2.67,0H62a1.83,1.83,0,0,1,1.88,1.2,10.21,10.21,0,0,1,.57,2.68c.07,1.43.07,2.88.07,4.29,0,.57,0,1.15,0,1.72v1.85c0,1.44,0,2.88,0,4.32a4,4,0,0,1-1.21,3.1,3.7,3.7,0,0,1-2.55.91l-.53,0c-4.93-.5-7.93-3.34-9.17-8.68A11.52,11.52,0,0,1,51.69,107ZM51,91.69a12.55,12.55,0,0,1,2.75-11.22,9.07,9.07,0,0,1,7.06-3,3.24,3.24,0,0,1,2.35.91,4.14,4.14,0,0,1,1.19,2.91c0,1.47,0,2.93,0,4.4l0,3.35c0,1.48,0,3,0,4.42a7.34,7.34,0,0,1-.17,1.79c-.48,1.83-1.1,2.34-2.78,2.25a27,27,0,0,0-3.11,0l-.47,0A6.84,6.84,0,0,1,51,91.69Zm37,21.54c-.27,0-.54,0-.81,0A2.15,2.15,0,0,1,86,113a13.34,13.34,0,0,1-2.26-2.08c-.3-.32-.6-.65-.92-1l-.85-.85L93.06,109l0,4.15-2.73,0H88.74C88.5,113.19,88.25,113.21,88,113.23Zm4.75,8.68h-.08a2.9,2.9,0,0,1-2.89-2.83,2.81,2.81,0,0,1,.8-2,2.88,2.88,0,0,1,2.06-.88,3,3,0,0,1,2.06.82,2.85,2.85,0,0,1,.84,2A2.88,2.88,0,0,1,92.74,121.91Z"/><path class="a" d="M116.57,62.46l-4,3.11a3.26,3.26,0,0,0-.54,4.65A50.54,50.54,0,0,1,115.26,130a3.26,3.26,0,0,0,.77,4.35l4,3.11a3.31,3.31,0,0,0,4.77-.81A62.2,62.2,0,0,0,121.17,63,3.32,3.32,0,0,0,116.57,62.46Z"/><path class="a" d="M135.48,47.85a3.28,3.28,0,0,1,4.53.49,85.55,85.55,0,0,1,3.69,103.13,3.27,3.27,0,0,1-4.66.66l-3.78-2.91a3.27,3.27,0,0,1-.72-4.44,74.22,74.22,0,0,0-3.42-89.38,3.27,3.27,0,0,1,.59-4.63Z"/><path class="a" d="M154.39,33.26,150.87,36a3.29,3.29,0,0,0-.51,4.7,98,98,0,0,1,3.45,118.78,3.3,3.3,0,0,0,.63,4.56l3.52,2.71a3.26,3.26,0,0,0,4.65-.64,108.92,108.92,0,0,0-3.67-132.34A3.27,3.27,0,0,0,154.39,33.26Z"/></svg>